{"glyphs":{"0":{"ha":908,"x_min":0,"x_max":0,"o":"m 453 -11 b 863 486 697 -11 863 182 b 453 983 863 792 697 983 b 46 486 210 983 46 792 b 453 -11 46 182 210 -11 z m 453 178 b 269 486 335 178 269 285 b 453 794 269 688 335 794 b 639 486 572 794 639 688 b 453 178 639 285 572 178 z "},"1":{"ha":581,"x_min":0,"x_max":0,"o":"m 501 0 l 501 972 l 315 972 b 51 825 232 903 115 844 l 51 633 b 278 731 143 654 225 689 l 278 0 z "},"2":{"ha":807,"x_min":0,"x_max":0,"o":"m 743 0 l 743 189 l 350 189 l 497 308 b 742 667 661 422 742 536 b 388 983 742 851 592 983 b 24 603 153 983 1 825 l 244 603 b 388 794 236 718 290 794 b 518 667 464 794 518 743 b 375 458 518 601 469 539 l 29 171 l 29 0 z "},"3":{"ha":829,"x_min":0,"x_max":0,"o":"m 747 801 l 747 972 l 63 972 l 63 783 l 476 783 l 283 599 l 283 422 b 408 449 318 439 364 449 b 564 315 497 449 564 396 b 407 178 564 235 499 178 b 242 325 313 178 242 231 l 32 325 b 406 -11 32 103 201 -11 b 785 307 631 -11 785 118 b 503 588 785 472 688 578 z "},"4":{"ha":890,"x_min":0,"x_max":0,"o":"m 733 0 l 733 186 l 849 186 l 849 375 l 733 375 l 733 972 l 499 972 l 33 356 l 33 186 l 511 186 l 511 0 z m 511 701 l 511 375 l 260 375 z "},"5":{"ha":813,"x_min":0,"x_max":0,"o":"m 456 644 b 272 575 389 644 324 624 l 308 783 l 693 783 l 693 972 l 146 972 l 64 406 l 251 406 b 392 478 278 450 329 478 b 547 328 483 478 547 417 b 397 178 547 239 486 178 b 243 300 318 178 258 224 l 43 300 b 407 -11 50 115 207 -11 b 768 328 624 -11 768 124 b 456 644 768 515 638 644 z "},"6":{"ha":867,"x_min":0,"x_max":0,"o":"m 476 642 b 251 532 376 642 299 604 b 464 801 263 674 326 801 b 606 697 546 801 597 750 l 817 697 b 461 983 800 867 678 983 b 46 439 206 983 46 764 b 447 -11 46 178 199 -11 b 814 317 660 -11 814 128 b 476 642 814 504 671 642 z m 600 324 b 444 168 599 233 535 168 b 286 324 353 168 286 233 b 444 478 286 414 353 478 b 600 324 535 478 601 414 z "},"7":{"ha":789,"x_min":0,"x_max":0,"o":"m 408 0 b 757 783 414 228 549 531 l 757 972 l 43 972 l 43 783 l 526 783 b 186 0 339 576 207 272 z "},"8":{"ha":817,"x_min":0,"x_max":0,"o":"m 408 -11 b 771 275 603 -11 771 101 b 597 513 771 396 707 481 b 749 717 685 543 749 628 b 408 983 749 863 610 983 b 69 717 207 983 69 863 b 221 513 69 629 135 544 b 46 275 108 479 46 394 b 408 -11 46 101 215 -11 z m 408 597 b 278 707 332 597 279 640 b 408 817 278 772 331 817 b 540 707 486 817 540 772 b 408 597 539 640 486 597 z m 410 165 b 260 290 321 165 260 215 b 410 415 260 367 321 415 b 557 290 500 415 557 367 b 410 165 557 215 500 165 z "},"9":{"ha":867,"x_min":0,"x_max":0,"o":"m 419 983 b 53 656 207 983 53 844 b 390 331 53 468 196 331 b 615 440 490 331 568 368 b 403 171 604 299 540 171 b 261 275 321 171 269 222 l 50 275 b 406 -11 67 106 189 -11 b 821 533 661 -11 821 208 b 419 983 821 794 668 983 z m 422 494 b 267 649 332 494 265 558 b 422 804 268 739 332 804 b 581 649 514 804 581 739 b 422 494 581 558 514 494 z "},"\r":{"ha":331,"x_min":0,"x_max":0,"o":""}," ":{"ha":331,"x_min":0,"x_max":0,"o":""},"A":{"ha":999,"x_min":0,"x_max":0,"o":"m 992 0 l 624 972 l 376 972 l 8 0 l 240 0 l 313 194 l 679 194 l 751 0 z m 418 478 b 493 697 460 592 493 697 l 499 697 b 574 478 499 697 532 592 l 608 383 l 383 383 z "},"B":{"ha":882,"x_min":0,"x_max":0,"o":"m 506 0 b 843 290 707 0 843 115 b 654 528 843 401 765 497 b 790 726 733 561 790 639 b 503 972 790 874 675 972 l 79 972 l 79 0 z m 303 783 l 468 783 b 575 690 531 783 575 746 b 468 596 575 635 531 596 l 303 596 z m 303 424 l 485 424 b 621 307 565 424 621 376 b 485 189 621 238 565 189 l 303 189 z "},"C":{"ha":1028,"x_min":0,"x_max":0,"o":"m 535 -11 b 976 336 768 -11 947 104 l 743 336 b 533 178 733 251 647 178 b 269 486 385 178 269 288 b 533 794 269 685 386 794 b 740 640 643 794 726 732 l 972 640 b 535 983 953 851 783 983 b 46 486 265 983 46 804 b 535 -11 46 168 260 -11 z "},"D":{"ha":975,"x_min":0,"x_max":0,"o":"m 428 0 b 932 486 693 0 932 154 b 428 972 932 818 693 972 l 86 972 l 86 0 z m 310 783 l 401 783 b 708 486 564 783 708 701 b 401 189 708 271 564 189 l 310 189 z "},"E":{"ha":831,"x_min":0,"x_max":0,"o":"m 764 0 l 764 189 l 303 189 l 303 404 l 668 404 l 668 593 l 303 593 l 303 783 l 758 783 l 758 972 l 79 972 l 79 0 z "},"F":{"ha":813,"x_min":0,"x_max":0,"o":"m 303 0 l 303 404 l 668 404 l 668 593 l 303 593 l 303 783 l 758 783 l 758 972 l 79 972 l 79 0 z "},"G":{"ha":1054,"x_min":0,"x_max":0,"o":"m 528 -11 b 772 113 636 -11 732 33 l 772 0 l 975 0 l 975 529 l 508 529 l 508 356 l 771 356 b 540 178 758 251 668 178 b 269 486 379 178 269 297 b 532 794 269 676 379 794 b 743 639 647 794 726 732 l 972 639 b 547 983 953 846 781 983 b 46 486 276 983 46 811 b 528 -11 46 161 269 -11 z "},"H":{"ha":994,"x_min":0,"x_max":0,"o":"m 693 596 l 303 596 l 303 972 l 79 972 l 79 0 l 303 0 l 303 406 l 693 406 l 693 0 l 915 0 l 915 972 l 693 972 z "},"I":{"ha":382,"x_min":0,"x_max":0,"o":"m 303 0 l 303 972 l 79 972 l 79 0 z "},"J":{"ha":525,"x_min":0,"x_max":0,"o":"m 36 0 b 156 -11 68 -7 115 -11 b 446 293 324 -11 446 96 l 446 972 l 222 972 l 222 304 b 103 183 222 229 175 183 b 36 193 82 183 56 186 z "},"K":{"ha":968,"x_min":0,"x_max":0,"o":"m 960 0 l 556 581 l 928 972 l 633 972 l 303 617 l 303 972 l 79 972 l 81 0 l 303 0 l 303 314 l 407 424 l 688 0 z "},"L":{"ha":801,"x_min":0,"x_max":0,"o":"m 735 0 l 735 189 l 303 189 l 303 972 l 79 972 l 79 0 z "},"M":{"ha":1282,"x_min":0,"x_max":0,"o":"m 303 0 l 303 407 b 292 671 303 528 292 671 l 297 672 b 388 424 297 672 342 536 l 560 0 l 724 0 l 894 424 b 985 672 940 536 985 672 l 990 671 b 979 407 990 671 979 529 l 979 0 l 1203 0 l 1203 972 l 903 972 l 646 342 l 389 972 l 79 972 l 79 0 z "},"N":{"ha":1010,"x_min":0,"x_max":0,"o":"m 310 0 l 310 414 b 297 678 310 536 297 678 l 303 679 b 415 442 303 679 358 549 l 653 0 l 922 0 l 922 972 l 700 972 l 700 558 b 713 294 700 436 713 294 l 707 293 b 594 531 707 293 651 424 l 357 972 l 86 972 l 86 0 z "},"O":{"ha":1094,"x_min":0,"x_max":0,"o":"m 549 -11 b 1049 486 835 -11 1049 199 b 549 983 1049 774 835 983 b 46 486 260 983 46 774 b 549 -11 46 199 260 -11 z m 549 178 b 269 486 385 178 269 308 b 549 794 269 664 385 794 b 825 486 710 794 825 663 b 549 178 825 310 710 178 z "},"P":{"ha":846,"x_min":0,"x_max":0,"o":"m 308 0 l 308 363 l 493 363 b 822 668 692 363 822 485 b 493 972 822 851 692 972 l 86 972 l 86 0 z m 308 783 l 468 783 b 601 668 550 783 601 738 b 468 553 601 597 550 553 l 308 553 z "},"Q":{"ha":1143,"x_min":0,"x_max":0,"o":"m 1022 189 b 939 181 999 189 969 186 b 1049 486 1007 268 1049 375 b 549 983 1049 774 835 983 b 46 486 260 983 46 774 b 549 -11 46 199 260 -11 b 651 0 585 -11 618 -7 l 1113 0 l 1113 189 z m 269 486 b 549 794 269 664 385 794 b 825 486 710 794 825 663 b 549 178 825 310 710 178 b 269 486 385 178 269 308 z "},"R":{"ha":911,"x_min":0,"x_max":0,"o":"m 646 422 b 793 676 738 475 793 571 b 478 972 793 854 665 972 l 86 972 l 86 0 l 310 0 l 310 379 l 428 379 l 639 0 l 896 0 z m 438 783 b 569 676 519 783 569 742 b 438 568 569 611 519 568 l 310 568 l 310 783 z "},"S":{"ha":835,"x_min":0,"x_max":0,"o":"m 433 -11 b 796 292 646 -11 796 107 b 296 711 796 674 296 557 b 419 794 296 765 342 794 b 571 683 506 794 560 739 l 792 683 b 419 983 765 883 603 983 b 74 700 229 983 74 869 b 572 278 74 343 572 451 b 433 178 572 213 515 178 b 257 332 333 178 268 249 l 36 332 b 433 -11 51 121 226 -11 z "},"T":{"ha":831,"x_min":0,"x_max":0,"o":"m 19 972 l 19 783 l 304 783 l 304 0 l 526 0 l 526 783 l 811 783 l 811 972 z "},"U":{"ha":976,"x_min":0,"x_max":0,"o":"m 489 -11 b 897 365 735 -11 897 139 l 897 972 l 674 972 l 674 365 b 489 178 674 254 600 178 b 303 365 378 178 303 254 l 303 972 l 79 972 l 79 365 b 489 -11 79 139 243 -11 z "},"V":{"ha":988,"x_min":0,"x_max":0,"o":"m 618 0 l 969 972 l 738 972 l 571 496 b 500 275 532 381 500 275 l 494 275 b 424 496 494 275 464 381 l 256 972 l 19 972 l 369 0 z "},"W":{"ha":1469,"x_min":0,"x_max":0,"o":"m 556 0 l 676 442 b 732 668 708 560 732 668 l 738 668 b 793 442 738 668 761 560 l 914 0 l 1160 0 l 1450 972 l 1221 972 l 1097 501 b 1044 275 1067 383 1044 275 l 1039 275 b 985 501 1039 275 1015 383 l 861 972 l 614 972 l 492 501 b 439 275 463 383 439 275 l 433 275 b 379 500 433 275 411 383 l 254 972 l 19 972 l 310 0 z "},"X":{"ha":893,"x_min":0,"x_max":0,"o":"m 571 515 l 847 972 l 599 972 l 447 721 l 294 972 l 35 972 l 317 506 l 11 0 l 260 0 l 442 300 l 622 0 l 882 0 z "},"Y":{"ha":918,"x_min":0,"x_max":0,"o":"m 672 972 l 464 614 l 257 972 l -3 972 l 349 385 l 349 0 l 571 0 l 571 388 l 921 972 z "},"Z":{"ha":843,"x_min":0,"x_max":0,"o":"m 793 0 l 793 189 l 297 189 l 789 801 l 789 972 l 60 972 l 60 783 l 528 783 l 36 171 l 36 0 z "},"a":{"ha":803,"x_min":0,"x_max":0,"o":"m 383 782 b 51 500 217 782 61 678 l 242 500 b 383 631 247 574 303 631 b 528 497 471 631 528 578 l 528 483 l 388 468 b 50 214 160 443 50 365 b 303 -11 50 88 154 -11 b 528 93 401 -11 488 29 l 528 0 l 731 0 l 731 461 b 383 782 731 675 588 782 z m 356 136 b 247 221 286 136 247 175 b 383 318 247 276 294 308 l 528 336 l 528 318 b 356 136 525 221 463 136 z "},"b":{"ha":932,"x_min":0,"x_max":0,"o":"m 514 781 b 281 657 399 781 314 725 l 281 983 l 74 983 l 74 0 l 281 0 l 281 117 b 511 -11 313 42 407 -11 b 881 385 729 -11 881 143 b 514 781 881 626 729 781 z m 476 167 b 281 385 361 167 281 254 b 476 603 281 515 361 603 b 671 385 592 603 671 515 b 476 167 671 254 592 167 z "},"c":{"ha":874,"x_min":0,"x_max":0,"o":"m 446 -11 b 824 283 649 -11 800 101 l 608 283 b 446 167 594 218 540 167 b 261 385 342 167 261 253 b 446 603 261 517 340 603 b 607 482 536 603 594 554 l 818 482 b 446 781 792 679 643 781 b 51 385 215 781 51 617 b 446 -11 51 154 215 -11 z "},"d":{"ha":932,"x_min":0,"x_max":0,"o":"m 651 657 b 418 781 618 725 533 781 b 51 385 203 781 51 626 b 421 -11 51 143 203 -11 b 651 117 525 -11 619 42 l 651 0 l 858 0 l 858 983 l 651 983 z m 456 167 b 261 385 340 167 261 254 b 456 603 261 515 340 603 b 651 385 571 603 651 515 b 456 167 651 254 571 167 z "},"e":{"ha":871,"x_min":0,"x_max":0,"o":"m 819 413 b 433 782 819 579 704 782 b 51 385 169 782 51 576 b 444 -12 51 193 182 -12 b 814 246 625 -12 782 67 l 596 246 b 451 160 581 194 531 160 b 254 342 342 160 269 226 l 815 342 b 819 413 818 361 819 376 z m 260 476 b 433 631 282 576 343 631 b 597 476 535 631 593 567 z "},"f":{"ha":585,"x_min":0,"x_max":0,"o":"m 472 903 b 551 888 496 903 525 897 l 551 1064 b 439 1083 524 1076 485 1083 b 156 810 278 1083 156 988 l 156 769 l 33 769 l 33 600 l 156 600 l 156 0 l 364 0 l 364 600 l 551 600 l 551 769 l 364 769 l 364 790 b 472 903 364 864 410 903 z "},"g":{"ha":904,"x_min":0,"x_max":0,"o":"m 626 676 b 414 781 586 740 513 781 b 56 415 201 781 56 640 b 415 51 56 193 201 51 b 626 157 510 51 588 90 l 626 78 b 442 -96 626 -28 546 -96 b 268 3 344 -96 279 -53 l 68 3 b 442 -264 88 -169 239 -264 b 833 78 671 -264 833 -131 l 833 769 l 626 769 z m 451 224 b 263 415 340 224 263 300 b 451 611 263 532 340 611 b 640 415 564 611 640 531 b 451 224 640 301 564 224 z "},"h":{"ha":882,"x_min":0,"x_max":0,"o":"m 525 781 b 281 656 406 781 314 721 l 281 983 l 72 983 l 72 0 l 281 0 l 281 333 b 457 597 281 499 347 597 b 601 449 544 597 601 539 l 601 0 l 808 0 l 808 503 b 525 781 808 671 697 781 z "},"i":{"ha":353,"x_min":0,"x_max":0,"o":"m 176 854 b 299 974 246 854 299 904 b 176 1092 299 1040 246 1092 b 53 974 106 1092 53 1040 b 176 854 53 904 106 854 z m 281 0 l 281 769 l 72 769 l 72 0 z "},"j":{"ha":353,"x_min":0,"x_max":0,"o":"m 175 854 b 297 974 244 854 297 904 b 175 1092 297 1040 244 1092 b 51 974 104 1092 51 1040 b 175 854 51 904 104 854 z m -12 -264 b 281 18 161 -271 281 -161 l 281 769 l 72 769 l 72 46 b -26 -85 72 -42 33 -85 l -50 -85 l -50 -261 z "},"k":{"ha":871,"x_min":0,"x_max":0,"o":"m 860 0 l 538 482 l 835 769 l 561 769 l 281 493 l 281 983 l 72 983 l 72 0 l 281 0 l 281 235 l 386 336 l 611 0 z "},"l":{"ha":353,"x_min":0,"x_max":0,"o":"m 281 0 l 281 983 l 72 983 l 72 0 z "},"m":{"ha":1342,"x_min":0,"x_max":0,"o":"m 1001 781 b 740 642 904 781 807 736 b 506 781 708 724 618 781 b 279 657 397 781 310 721 l 279 769 l 72 769 l 72 0 l 279 0 l 279 333 b 438 597 279 500 339 597 b 567 449 515 597 567 539 l 567 0 l 775 0 l 775 333 b 932 597 775 500 833 597 b 1063 449 1010 597 1063 539 l 1063 0 l 1269 0 l 1269 503 b 1001 781 1269 671 1163 781 z "},"n":{"ha":882,"x_min":0,"x_max":0,"o":"m 525 781 b 281 656 406 781 314 721 l 281 769 l 72 769 l 72 0 l 281 0 l 281 333 b 457 597 281 499 347 597 b 601 449 544 597 601 539 l 601 0 l 808 0 l 808 503 b 525 781 808 671 697 781 z "},"o":{"ha":913,"x_min":0,"x_max":0,"o":"m 456 -11 b 861 385 692 -11 861 153 b 456 781 861 617 692 781 b 51 385 221 781 51 617 b 456 -11 51 153 221 -11 z m 456 167 b 261 385 340 167 261 254 b 456 603 261 515 340 603 b 651 385 571 603 651 515 b 456 167 651 254 571 167 z "},"p":{"ha":932,"x_min":0,"x_max":0,"o":"m 510 781 b 281 653 406 781 313 728 l 281 769 l 72 769 l 72 -206 l 281 -206 l 281 113 b 514 -11 314 44 399 -11 b 881 385 729 -11 881 143 b 510 781 881 626 729 781 z m 475 167 b 281 385 360 167 281 254 b 475 603 281 515 360 603 b 669 385 590 603 669 515 b 475 167 669 254 590 167 z "},"q":{"ha":932,"x_min":0,"x_max":0,"o":"m 651 653 b 422 781 619 728 526 781 b 51 385 203 781 51 626 b 418 -11 51 143 203 -11 b 651 113 533 -11 618 44 l 651 -206 l 860 -206 l 860 769 l 651 769 z m 457 167 b 263 385 342 167 263 254 b 457 603 263 515 342 603 b 651 385 572 603 651 515 b 457 167 651 254 572 167 z "},"r":{"ha":625,"x_min":0,"x_max":0,"o":"m 588 768 b 510 782 572 778 535 782 b 279 615 411 782 311 713 l 279 769 l 72 769 l 72 0 l 279 0 l 279 281 b 483 588 279 500 375 588 b 588 569 515 588 553 582 z "},"s":{"ha":704,"x_min":0,"x_max":0,"o":"m 361 -12 b 660 226 536 -12 660 86 b 239 567 660 565 239 425 b 336 636 239 608 279 636 b 456 531 393 636 453 596 l 651 531 b 333 782 647 683 519 782 b 50 561 171 782 50 692 b 474 222 50 254 474 363 b 361 144 474 175 431 144 b 221 257 282 144 225 186 l 26 257 b 361 -12 32 96 172 -12 z "},"t":{"ha":586,"x_min":0,"x_max":0,"o":"m 540 769 l 354 769 l 354 928 l 147 928 l 147 769 l 24 769 l 24 600 l 147 600 l 147 263 b 428 -11 147 85 268 -11 b 540 8 474 -11 513 -4 l 540 185 b 456 169 518 175 488 169 b 354 282 394 169 354 208 l 354 600 l 540 600 z "},"u":{"ha":882,"x_min":0,"x_max":0,"o":"m 601 436 b 425 172 601 271 535 172 b 281 321 338 172 281 231 l 281 769 l 74 769 l 74 267 b 357 -11 74 99 185 -11 b 601 114 476 -11 568 49 l 601 0 l 810 0 l 810 769 l 601 769 z "},"v":{"ha":839,"x_min":0,"x_max":0,"o":"m 518 0 l 826 769 l 607 769 l 501 490 b 426 271 458 376 426 271 l 421 271 b 344 490 421 271 388 376 l 238 769 l 13 769 l 321 0 z "},"w":{"ha":1281,"x_min":0,"x_max":0,"o":"m 963 494 b 899 271 926 378 899 271 l 893 271 b 828 494 893 271 865 378 l 740 769 l 547 769 l 460 494 b 396 271 424 378 396 271 l 390 271 b 325 494 390 271 361 378 l 236 769 l 13 769 l 292 0 l 486 0 l 569 251 b 639 474 608 367 639 474 l 644 474 b 713 251 644 474 674 367 l 796 0 l 989 0 l 1269 769 l 1050 769 z "},"x":{"ha":822,"x_min":0,"x_max":0,"o":"m 533 397 l 782 769 l 539 769 l 411 579 l 283 769 l 33 769 l 286 392 l 24 0 l 267 0 l 408 211 l 549 0 l 799 0 z "},"y":{"ha":840,"x_min":0,"x_max":0,"o":"m 503 499 b 425 279 460 385 425 279 l 419 279 b 342 499 419 279 386 385 l 238 769 l 13 769 l 313 26 l 214 -206 l 435 -206 l 829 769 l 607 769 z "},"z":{"ha":758,"x_min":0,"x_max":0,"o":"m 713 0 l 713 169 l 308 169 l 703 611 l 703 769 l 74 769 l 74 600 l 440 600 l 46 158 l 46 0 z "}," ":{"ha":331,"x_min":0,"x_max":0,"o":""},".":{"ha":340,"x_min":0,"x_max":0,"o":"m 169 -10 b 289 108 238 -10 289 40 b 169 225 289 175 238 225 b 51 108 103 225 51 175 b 169 -10 51 40 103 -10 z "},",":{"ha":339,"x_min":0,"x_max":0,"o":"m 143 -193 l 256 1 b 289 106 275 35 289 71 b 167 225 289 174 239 225 b 47 104 94 225 47 175 b 121 0 47 50 75 13 l 53 -193 z "},"-":{"ha":561,"x_min":0,"x_max":0,"o":"m 515 329 l 515 504 l 46 504 l 46 329 z "}}}
